<svg width="100" height="101" viewBox="0 0 100 101" fill="none" xmlns="http://www.w3.org/2000/svg">
<circle r="50" transform="matrix(-1 0 0 1 50 50.5)" fill="#FAD059"/>
<mask id="mask0" mask-type="alpha" maskUnits="userSpaceOnUse" x="0" y="0" width="100" height="101">
<circle r="50" transform="matrix(-1 0 0 1 50 50.5)" fill="#FAD059"/>
</mask>
<g mask="url(#mask0)">
<path fill-rule="evenodd" clip-rule="evenodd" d="M35.4736 67.2664C29.9095 60.7352 26.1436 52.7313 26.7729 43.7626C28.586 17.9212 64.5581 23.606 71.5554 36.6485C78.5527 49.691 77.7212 82.7743 68.6778 85.1053C65.0713 86.035 57.3884 83.7578 49.569 79.0447L54.4771 113.767H25.4968L35.4736 67.2664Z" fill="#FF9585"/>
<path fill-rule="evenodd" clip-rule="evenodd" d="M33.2468 73.0834C29.6095 56.9014 19.2474 45.8708 20.8299 38.6381C21.8849 33.8164 24.6969 30.8179 29.2658 29.6427C31.6288 20.0832 39.2499 16.0173 52.1292 17.4447C71.4481 19.5858 83.2393 27.6088 78.1473 45.2627C73.4665 45.2627 67.8158 43.5699 60.0021 46.4703C57.5228 47.3905 55.7496 50.2443 54.6823 55.0316H51.1513C47.7244 49.3504 44.3453 47.2627 41.0143 48.7685C37.6832 50.2744 36.926 53.9321 38.7426 59.7416L37.0033 73.0834H33.2468Z" fill="#FF613A"/>
<rect x="46" y="47.1665" width="38.6667" height="12" fill="#11195D"/>
</g>
</svg>
